<!--?xml version="1.0" encoding="utf-8"?-->
<!-- Generator: Adobe Illustrator 18.1.1, SVG Export Plug-In . SVG Version: 6.00 Build 0)  -->

<svg version="1.1" id="_x32_" xmlns="http://www.w3.org/2000/svg" xmlns:xlink="http://www.w3.org/1999/xlink" x="0px" y="0px" viewBox="0 0 512 512" style="width: 64px; height: 64px; opacity: 1;" xml:space="preserve">
<style type="text/css">
	.st0{fill:#4B4B4B;}
</style>
<g>
	<path class="st0" d="M198.668,351.181c51.529,0,93.308-41.78,93.308-93.316c0-51.522-41.779-93.316-93.308-93.316
		c-51.537,0-93.309,41.794-93.309,93.316C105.36,309.401,147.132,351.181,198.668,351.181z" style="fill: rgb(20, 9, 9);"></path>
	<polygon class="st0" points="181.123,387.79 198.668,409.625 216.213,387.79 213.85,360.458 183.486,360.458 	" style="fill: rgb(20, 9, 9);"></polygon>
	<path class="st0" d="M277.682,365.272c-4.101-4.029-11.22-2.356-13.72-0.931c-6.857,3.897-14.164,7.191-21.806,9.83l-43.488,54.161
		l-43.488-54.161c-7.641-2.64-14.949-5.933-21.806-9.83c-2.501-1.426-9.619-3.098-13.72,0.931
		c-15.16,14.876-36.319,46.664-40.485,69.656C68.932,491.539,134.567,512,198.668,512c64.1,0,129.736-20.461,119.498-77.072
		C314,411.936,292.842,380.148,277.682,365.272z M198.668,477.507c-6.937,0-12.564-5.628-12.564-12.564
		c0-6.937,5.628-12.564,12.564-12.564c6.936,0,12.564,5.628,12.564,12.564C211.233,471.878,205.604,477.507,198.668,477.507z" style="fill: rgb(20, 9, 9);"></path>
	<path class="st0" d="M261.256,64.478c-7.293,0-13.197,5.904-13.197,13.197s5.904,13.197,13.197,13.197
		c7.286,0,13.19-5.904,13.19-13.197S268.542,64.478,261.256,64.478z" style="fill: rgb(20, 9, 9);"></path>
	<path class="st0" d="M314.022,64.478c-7.286,0-13.196,5.904-13.196,13.197s5.911,13.197,13.196,13.197
		c7.285,0,13.197-5.904,13.197-13.197S321.307,64.478,314.022,64.478z" style="fill: rgb(20, 9, 9);"></path>
	<path class="st0" d="M366.787,64.478c-7.285,0-13.19,5.904-13.19,13.197s5.904,13.197,13.19,13.197
		c7.293,0,13.197-5.904,13.197-13.197S374.08,64.478,366.787,64.478z" style="fill: rgb(20, 9, 9);"></path>
	<path class="st0" d="M356.208,0h-84.372c-42.833,0-77.68,34.842-77.683,77.676c0.004,42.826,34.85,77.676,77.683,77.683h66.428
		c1.709,0,2.846,0.421,3.486,1.294c0.287,0.386,0.706,1.214,0.328,2.436c-0.716,2.32-3.388,7.991-6.926,12.906
		c-1.807,2.086-2.759,5.846-1.232,8.522c0.931,1.622,2.334,3.213,8.274,3.323c0,0,1.04,0.014,1.043,0.014
		c10.238,0,25.874-2.53,36.003-8.078c15.839-8.674,29.462-22.62,39.394-40.324c9.976-17.843,15.251-37.816,15.258-57.776
		C433.887,34.842,399.042,0,356.208,0z M395.024,141.246c-6.882,8.507-15.054,15.48-23.638,20.162
		c-3.897,2.123-10.336,5.053-14.364,6.268l-3.69,1.112l1.985-3.301c1.988-3.322,3.995-8.114,3.974-10.891
		c0.069-4.218-1.898-8.028-5.694-11.023c-3.814-3.054-8.99-4.595-15.378-4.595h-66.384c-16.363,0-31.76-6.376-43.353-17.952
		c-11.572-11.59-17.949-26.99-17.956-43.35c0.008-16.366,6.384-31.759,17.956-43.342c11.59-11.583,26.986-17.959,43.353-17.959
		h84.372c16.367,0,31.763,6.376,43.354,17.959c11.572,11.583,17.948,26.976,17.955,43.342
		C417.542,100.412,409.345,123.577,395.024,141.246z" style="fill: rgb(20, 9, 9);"></path>
</g>
</svg>
