<?xml version="1.0" encoding="utf-8"?>
<!-- Svg Vector Icons : http://www.onlinewebfonts.com/icon -->
<!DOCTYPE svg PUBLIC "-//W3C//DTD SVG 1.1//EN" "http://www.w3.org/Graphics/SVG/1.1/DTD/svg11.dtd">
<svg version="1.1" xmlns="http://www.w3.org/2000/svg" xmlns:xlink="http://www.w3.org/1999/xlink" x="0px" y="0px" viewBox="0 0 1000 1000" enable-background="new 0 0 1000 1000" xml:space="preserve">
<metadata> Svg Vector Icons : http://www.onlinewebfonts.com/icon </metadata>
<g><path d="M302.1,843.9c26,0,47.1,21.1,47.1,47.1s-21.1,47.1-47.1,47.1S255,917,255,891.1S276.1,843.9,302.1,843.9 M302.1,787.4c-57.3,0-103.7,46.4-103.7,103.7s46.4,103.7,103.7,103.7c57.3,0,103.7-46.4,103.7-103.7S359.4,787.4,302.1,787.4L302.1,787.4z"/><path d="M697.9,843.9c26,0,47.1,21.1,47.1,47.1s-21.1,47.1-47.1,47.1s-47.1-21.1-47.1-47.1S671.9,843.9,697.9,843.9 M697.9,787.4c-57.2,0-103.7,46.4-103.7,103.7s46.4,103.7,103.7,103.7s103.7-46.4,103.7-103.7S755.1,787.4,697.9,787.4L697.9,787.4z"/><path d="M707.3,259.7H292.7c-83.1,0-150.8,67.6-150.8,150.8v188.5c0,83.1,67.6,150.8,150.8,150.8h414.6c83.1,0,150.8-67.6,150.8-150.8V410.5C858.1,327.4,790.4,259.7,707.3,259.7z M311.5,523.6c-31.2,0-56.5-25.3-56.5-56.5c0-31.2,25.3-56.5,56.5-56.5c31.2,0,56.5,25.3,56.5,56.5C368.1,498.2,342.8,523.6,311.5,523.6z M688.5,523.6c-31.2,0-56.5-25.3-56.5-56.5c0-31.2,25.3-56.5,56.5-56.5c31.2,0,56.5,25.3,56.5,56.5C745,498.2,719.7,523.6,688.5,523.6z"/><path d="M801.5,127.8h-42.3l103.6-60.3c13.4-7.8,18-25.1,10.3-38.6c-7.7-13.5-24.9-18.2-38.3-10.3L647.2,127.8H369.9L164.3,9.1c-13.5-7.8-30.8-3.2-38.6,10.3c-7.8,13.5-3.2,30.8,10.3,38.6l120.8,69.7h-58.4C94.4,127.8,10,212.2,10,316.3v376.9c0,104.1,84.4,188.5,188.5,188.5h603.1c104.1,0,188.5-84.4,188.5-188.5V316.3C990,212.2,905.6,127.8,801.5,127.8z M895.8,598.9c0,104.1-84.4,188.5-188.5,188.5H292.7c-104.1,0-188.5-84.4-188.5-188.5V410.5c0-104.1,84.4-188.5,188.5-188.5h414.6c104.1,0,188.5,84.4,188.5,188.5V598.9z"/></g>
</svg>