<?xml version="1.0" standalone="no"?>
<!DOCTYPE svg PUBLIC "-//W3C//DTD SVG 20010904//EN"
 "http://www.w3.org/TR/2001/REC-SVG-20010904/DTD/svg10.dtd">
<svg version="1.0" xmlns="http://www.w3.org/2000/svg"
 width="807.000000pt" height="1280.000000pt" viewBox="0 0 807.000000 1280.000000"
 preserveAspectRatio="xMidYMid meet">
<metadata>
Created by potrace 1.15, written by Peter Selinger 2001-2017
</metadata>
<g transform="translate(0.000000,1280.000000) scale(0.100000,-0.100000)"
fill="#000000" stroke="none">
<path d="M3225 12790 c-367 -37 -707 -147 -992 -321 -38 -23 -120 -81 -184
-129 l-116 -88 -22 81 c-59 220 -169 331 -365 368 -118 22 -303 7 -432 -37
-641 -215 -1146 -1283 -1110 -2349 13 -401 50 -614 255 -1485 157 -668 195
-959 195 -1475 0 -430 -24 -727 -118 -1455 -130 -1005 -147 -1245 -127 -1876
19 -618 51 -945 133 -1339 107 -519 330 -1007 638 -1395 87 -110 386 -417 396
-407 3 3 -13 47 -36 98 -197 439 -292 810 -289 1134 1 116 13 227 21 205 3 -8
27 -82 53 -165 191 -612 468 -1016 887 -1295 123 -82 298 -177 298 -162 0 5
-16 62 -35 128 -87 291 -208 794 -259 1074 -101 550 -139 963 -140 1485 0 358
8 502 50 830 29 232 39 286 46 265 3 -8 22 -67 42 -130 56 -181 154 -363 260
-485 l35 -40 1 60 1 60 20 -38 c22 -42 85 -108 168 -178 l54 -46 -37 -219
c-34 -205 -46 -305 -77 -612 -14 -146 -7 -451 16 -652 33 -296 84 -604 185
-1135 12 -60 34 -182 50 -270 l29 -159 85 -126 c87 -129 170 -229 242 -293 59
-53 197 -137 298 -182 l88 -39 37 19 c123 66 103 320 -73 945 -96 344 -137
537 -171 815 -43 356 -46 924 -7 1150 21 119 74 340 84 351 3 3 21 -1 40 -9
92 -38 231 -61 373 -61 150 0 292 24 302 50 3 8 19 14 37 14 54 0 186 38 257
74 60 30 68 32 74 18 19 -49 146 -566 141 -577 -2 -7 9 -55 25 -106 17 -52 52
-186 79 -299 165 -695 197 -1038 180 -1955 -5 -283 1 -328 45 -364 24 -18 29
-18 87 -5 138 32 274 128 331 232 25 46 128 412 191 678 73 308 103 628 86
913 -6 90 -12 167 -15 171 -3 5 -19 102 -36 217 -58 398 -175 901 -295 1266
-28 85 -43 145 -38 155 8 19 8 17 0 59 -7 29 0 38 114 157 81 83 119 130 114
138 -15 25 -309 414 -501 663 -106 138 -225 291 -264 342 l-70 91 120 470 c67
259 121 478 121 488 0 10 -66 132 -146 272 -80 140 -144 256 -141 258 9 9 685
-318 741 -359 18 -13 17 -19 -28 -118 -26 -57 -50 -110 -53 -116 -4 -10 17
-13 87 -13 l92 0 66 -61 c93 -85 228 -186 352 -263 58 -36 108 -67 113 -68 4
-2 -6 -116 -23 -253 -52 -438 -63 -589 -64 -830 0 -208 3 -258 37 -520 75
-581 117 -804 197 -1045 26 -80 67 -187 91 -238 l43 -94 39 79 c155 306 224
589 289 1183 l23 215 3 -265 c14 -1128 -219 -2374 -574 -3082 -24 -48 -41 -88
-38 -88 11 0 235 141 349 219 260 179 369 274 763 665 166 166 302 296 302
290 0 -19 -58 -216 -104 -356 -61 -182 -136 -374 -230 -587 -43 -95 -75 -176
-72 -179 4 -3 62 50 130 119 506 511 876 1392 980 2339 32 290 40 465 40 835
0 368 -7 514 -40 825 -41 388 -82 639 -219 1330 -144 730 -205 1063 -241 1335
-25 178 -29 817 -10 1370 9 259 21 605 27 770 13 392 13 1033 -1 1210 -45 587
-340 1222 -688 1485 -136 102 -275 160 -435 181 -198 26 -343 -40 -566 -255
-82 -80 -245 -269 -271 -315 -7 -13 -12 -11 -31 14 -13 17 -61 70 -109 118
-358 372 -874 594 -1555 672 -168 19 -574 27 -700 15z m2385 -3532 c12 -56 11
-83 -9 -248 -13 -102 -21 -202 -20 -223 l4 -39 49 96 c28 53 51 96 52 96 8 0
184 -758 254 -1090 97 -465 105 -518 104 -725 -1 -161 -29 -562 -40 -574 -5
-6 -108 37 -204 85 -114 56 -215 126 -316 219 -76 69 -85 74 -92 56 -6 -18
-15 -14 -97 48 -161 121 -382 271 -437 296 -101 45 -259 66 -622 81 l-138 6
-16 28 -16 28 -48 -24 c-80 -41 -80 -41 -93 136 l-6 85 133 43 c227 74 499
204 712 339 37 25 70 43 71 41 2 -2 -5 -42 -15 -88 -11 -47 -20 -92 -20 -100
0 -18 163 143 229 225 186 233 324 535 508 1113 26 83 51 152 54 152 4 0 12
-28 19 -62z m-3461 -1077 c99 -97 255 -225 356 -293 159 -107 427 -222 650
-278 50 -13 95 -27 101 -32 10 -7 41 -205 33 -213 -2 -2 -26 6 -53 18 -27 12
-51 17 -53 12 -2 -6 -17 -34 -34 -63 l-30 -53 -57 6 c-31 4 -104 16 -161 27
-86 16 -106 17 -121 6 -10 -7 -154 -123 -319 -258 -166 -135 -305 -246 -310
-248 -5 -2 -12 13 -15 33 -4 20 -34 116 -68 213 -171 501 -211 624 -262 812
-31 112 -56 209 -56 214 0 6 25 -30 56 -80 31 -49 84 -129 118 -179 l61 -89 6
274 c4 151 7 287 8 302 1 27 2 27 43 -20 23 -26 71 -76 107 -111z m600 -1718
c-47 -169 -94 -719 -106 -1224 -6 -297 -6 -297 15 -310 28 -18 28 -24 -9 -106
-39 -86 -232 -570 -289 -726 -24 -64 -45 -115 -48 -113 -2 3 1 301 8 663 12
644 7 1018 -19 1273 -5 41 -7 77 -5 79 2 2 24 -8 50 -23 25 -14 48 -26 50 -26
1 0 -26 50 -62 112 -35 62 -64 115 -64 118 0 12 473 348 491 350 4 0 -2 -30
-12 -67z"/>
</g>
</svg>
